<?xml version="1.0" encoding="UTF-8"?>
<svg id="Camada_1" xmlns="http://www.w3.org/2000/svg" version="1.1" viewBox="0 0 256.8 91.8">
  <!-- Generator: Adobe Illustrator 29.1.0, SVG Export Plug-In . SVG Version: 2.1.0 Build 142)  -->
  <defs>
    <style>
      .st0 {
        fill: #1572b7;
      }

      .st1 {
        fill: #4a66ad;
      }

      .st2 {
        fill: #4f63aa;
      }

      .st3 {
        fill: #4e64ab;
      }

      .st4 {
        fill: #1b72b8;
      }

      .st5 {
        fill: #2c6eb5;
      }

      .st6 {
        fill: #3a6bb1;
      }

      .st7 {
        fill: #2770b6;
      }

      .st8 {
        fill: #69559f;
      }

      .st9 {
        fill: #595fa7;
      }

      .st10 {
        fill: #5e5ca4;
      }

      .st11 {
        fill: #5d5ca5;
      }

      .st12 {
        fill: #615aa2;
      }

      .st13 {
        fill: #1d3d72;
      }

      .st14 {
        fill: #6557a0;
      }

      .st15 {
        fill: #6c539d;
      }

      .st16 {
        fill: #5163ab;
      }

      .st17 {
        fill: #4468ae;
      }

      .st18 {
        fill: #2170b6;
      }

      .st19 {
        fill: #3d6ab0;
      }

      .st20 {
        fill: none;
      }

      .st21 {
        fill: #5c5ea6;
      }

      .st22 {
        fill: #4368af;
      }

      .st23 {
        fill: #4867ae;
      }

      .st24 {
        fill: #67559f;
      }

      .st25 {
        fill: #68559e;
      }

      .st26 {
        fill: #6658a0;
      }

      .st27 {
        fill: #605ba3;
      }

      .st28 {
        fill: #5661a8;
      }

      .st29 {
        fill: #5e5da5;
      }

      .st30 {
        fill: #69549e;
      }

      .st31 {
        fill: #6b539e;
      }

      .st32 {
        fill: #605ba4;
      }

      .st33 {
        fill: #6b539d;
      }

      .st34 {
        fill: #4069b0;
      }

      .st35 {
        fill: #66569f;
      }

      .st36 {
        fill: #376cb3;
      }

      .st37 {
        fill: #5262aa;
      }

      .st38 {
        fill: #635aa3;
      }

      .st39 {
        fill: #356cb3;
      }

      .st40 {
        fill: #6657a0;
      }

      .st41 {
        fill: #5760a7;
      }

      .st42 {
        fill: #6359a1;
      }

      .st43 {
        fill: #5461a9;
      }

      .st44 {
        fill: #4c65ac;
      }

      .st45 {
        fill: #6757a0;
      }

      .st46 {
        fill: #2f6eb4;
      }

      .st47 {
        fill: #4667ae;
      }
    </style>
  </defs>
  <path class="st20" d="M75.8,41.1h-1.5l-3.5,15.5h1.9c.8,0,1.6-.6,1.8-1.4l2.8-12.1c.2-1-.5-1.9-1.5-1.9Z"/>
  <path class="st20" d="M31.2,28.8l.5-2c.2-.9.2-1,.3-1.1,0-1-.6-1.4-1.4-1.4h-1.6l-1.5,6.5h1.7c1.1,0,1.7-.9,2-2Z"/>
  <path class="st20" d="M20.6,15.1c-1.2,0-1.7.9-2,2.1l-2.5,10.8c-.2.8-.2,1.1-.2,1.3,0,.9.4,1.7,1.4,1.7s1.7-.9,2-2.1l2.5-10.8c.2-.8.2-1.1.2-1.3,0-.9-.4-1.7-1.4-1.7Z"/>
  <path class="st20" d="M137.3,66.3c-.9,0-1.3.6-1.5,1.7l-.8,3.6h2.4l.7-3.1c.1-.6.2-.8.2-1,0-.6-.3-1.2-1-1.2Z"/>
  <path class="st20" d="M40.8,40.9c-1.2,0-1.7.8-2.1,2.4l-1.1,5h3.3l1-4.3c.2-.8.2-1.1.2-1.3,0-.9-.4-1.7-1.4-1.7Z"/>
  <path class="st20" d="M91.2,18.1c.2-.8.2-1.1.2-1.3,0-.9-.4-1.7-1.4-1.7s-1.7.8-2.1,2.4l-1.1,5h3.3l1-4.3Z"/>
  <path class="st20" d="M120,66.3c-.9,0-1.3.6-1.5,1.7l-.8,3.6h2.4l.7-3.1c.1-.6.2-.8.2-1,0-.6-.3-1.2-1-1.2Z"/>
  <path class="st20" d="M122.3,22.4c.5,0,1-.2,1.4-.5h0c.3-.4.5-.8.6-1.3l.6-2.7c.2-.7.2-1,.2-1.2,0-.8-.5-1.5-1.4-1.5h-1.5l-1.6,7.1s.6,0,.9,0h.8Z"/>
  <path class="st20" d="M32.6,21.2h0c.3-.4.5-.8.6-1.3l.4-1.9c.2-.7.2-1,.2-1.2,0-.8-.5-1.5-1.4-1.5h-1.5l-1.5,6.3h1.7c.5,0,1-.2,1.4-.5Z"/>
  <path class="st20" d="M123,42.6c0-.8-.5-1.5-1.4-1.5h-1.5l-1.6,7.1s.6,0,.9,0h.8c.5,0,1-.2,1.4-.5h0c.3-.4.5-.8.6-1.3l.6-2.7c.2-.7.2-1,.2-1.2Z"/>
  <path class="st20" d="M108.6,30.9c1.2,0,1.7-.9,2-2.1l2.5-10.8c.2-.8.2-1.1.2-1.3,0-.9-.4-1.7-1.4-1.7s-1.7.9-2,2.1l-2.5,10.8c-.2.8-.2,1.1-.2,1.3,0,.9.4,1.7,1.4,1.7Z"/>
  <path class="st20" d="M129.6,67.5c0-.6-.4-1.1-1.1-1.1h-1.1l-1.2,5.2s.4,0,.7,0h.6c.4,0,.7-.1,1-.3h0c.2-.3.3-.6.4-1l.4-2c.1-.5.1-.7.1-.9Z"/>
  <path class="st20" d="M141.4,15.1c-1.2,0-1.7.9-2,2.1l-2.5,10.8c-.2.8-.2,1.1-.2,1.3,0,.9.4,1.7,1.4,1.7s1.7-.9,2-2.1l2.5-10.8c.2-.8.2-1.1.2-1.3,0-.9-.4-1.7-1.4-1.7Z"/>
  <path class="st20" d="M64,22.4c.5,0,1-.2,1.4-.5h0c.3-.4.5-.8.6-1.3l.6-2.7c.2-.7.2-1,.2-1.2,0-.8-.5-1.5-1.4-1.5h-1.5l-1.6,7.1s.6,0,.9,0h.8Z"/>
  <path class="st20" d="M139.2,40.9c-1.2,0-1.7.8-2.1,2.4l-1.1,5h3.3l1-4.3c.2-.8.2-1.1.2-1.3,0-.9-.4-1.7-1.4-1.7Z"/>
  <path class="st20" d="M28.7,41.1h-1.5l-3.5,15.5h1.9c.8,0,1.6-.6,1.8-1.4l2.8-12.1c.2-1-.5-1.9-1.5-1.9Z"/>
  <path class="st22" d="M201.6,33.6c-.3,0-.6,0-1,.2l3.2.7c-.6-.5-1.4-.9-2.2-.9Z"/>
  <path class="st17" d="M204.8,35.9c-.2-.6-.5-1-.9-1.4l-3.2-.7s0,0-.1,0c-.6.2-1.1.6-1.4,1l5.7,1.3c0,0,0-.1,0-.2Z"/>
  <path class="st47" d="M204.8,36.1l-5.7-1.3c-.3.4-.5.8-.7,1.2l6.5,1.4c0-.5,0-.9,0-1.4Z"/>
  <path class="st23" d="M204.9,37.5l-6.5-1.4c-.1.4-.2.9-.1,1.3l6.2,1.4c.2-.4.4-.8.5-1.3Z"/>
  <path class="st1" d="M204.5,38.7l-6.2-1.4c0,.2,0,.5.2.7,0,.3.2.5.4.7l4.5,1c.5-.3.8-.7,1.1-1.1Z"/>
  <path class="st44" d="M203.4,39.8l-4.5-1c.8,1.2,2.4,1.8,3.9,1.3.2,0,.5-.2.7-.3Z"/>
  <path class="st23" d="M194.6,35.9c-.3,0-.6,0-1,.2-.1,0-.2,0-.3.1l3.6.8c-.6-.7-1.4-1.1-2.3-1.1Z"/>
  <path class="st1" d="M197.3,37.9c-.1-.3-.3-.6-.5-.9l-3.6-.8c-.5.2-.9.6-1.2,1.1l5.4,1.2c0-.2,0-.4-.1-.6Z"/>
  <path class="st44" d="M197.5,38.5l-5.4-1.2c-.2.4-.4.8-.4,1.3l5.7,1.3c.1-.4.2-.9.2-1.3Z"/>
  <path class="st3" d="M191.6,38.6c0,.4,0,.8.1,1.2,0,0,0,.1,0,.2l4.7,1c.4-.3.6-.7.8-1.2l-5.7-1.3Z"/>
  <path class="st2" d="M195.5,41.6c.4-.1.7-.3,1-.6l-4.7-1c.6,1.4,2.2,2.2,3.7,1.6Z"/>
  <path class="st37" d="M193.3,44.3c-.4-1-1.3-1.7-2.4-1.7-.3,0-.5,0-.8.1-.4.1-.8.4-1,.7l4.2.9s0,0,0,0Z"/>
  <path class="st43" d="M193.3,44.4l-4.2-.9c-.3.3-.5.8-.6,1.2l4.9,1.1c.1-.4.1-.9,0-1.4Z"/>
  <path class="st28" d="M193.3,45.8l-4.9-1.1c0,.4,0,.9,0,1.3.5,1.3,1.9,2,3.2,1.6.8-.3,1.4-1,1.6-1.8Z"/>
  <path class="st9" d="M194.8,51.5c-.3-.9-1.1-1.4-2-1.4-.2,0-.5,0-.7.1-.8.3-1.3,1-1.4,1.8l4.1.9c.2-.4.2-.9,0-1.4Z"/>
  <path class="st21" d="M194.8,52.9l-4.1-.9c0,.3,0,.6.1.9,0,.2.2.4.3.6l2.6.6c.5-.2.8-.7,1-1.1Z"/>
  <path class="st11" d="M193.5,54.2c.1,0,.2,0,.3-.1l-2.6-.6c.5.7,1.5,1,2.4.7Z"/>
  <path class="st21" d="M200.7,55.3c-.2-.7-.9-1.1-1.6-1.1-.2,0-.4,0-.6,0-.4.1-.6.4-.8.7l3.1.7c0-.1,0-.2,0-.3Z"/>
  <path class="st11" d="M200.8,55.6l-3.1-.7c-.3.4-.3.8-.2,1.3l2.9.7c.3-.4.4-.8.3-1.3Z"/>
  <path class="st29" d="M199.7,57.4c.3-.1.6-.3.8-.5l-2.9-.7c0,0,0,.1,0,.2.3.9,1.3,1.3,2.1,1Z"/>
  <path class="st41" d="M206.1,52.7h.5c-.2,0-.3,0-.5,0s0,0,0,0Z"/>
  <path class="st9" d="M205.7,52.8c-.5.2-.8.6-.8,1l2.4.5c0-.2,0-.5,0-.8-.1-.3-.4-.6-.7-.7h-.5c-.1-.1-.3,0-.4,0Z"/>
  <path class="st9" d="M204.9,54.4c.2.7.9,1,1.6.8.4-.1.7-.4.8-.8l-2.4-.5c0,.2,0,.4,0,.6Z"/>
  <path class="st37" d="M209.8,46.8c0,0-.2,0-.3,0-.4.2-.7.6-.5,1l1.4.3c.2-.2.3-.5.2-.8-.1-.4-.4-.6-.8-.6Z"/>
  <path class="st43" d="M209,47.9c.2.4.6.7,1.1.5.1,0,.2-.1.3-.2l-1.4-.3s0,0,0,0Z"/>
  <path class="st1" d="M207.9,40.2c0,0,0,0-.1,0-.2,0-.3.3-.3.5l.7.2c.1-.1.1-.3.1-.4,0-.2-.2-.3-.4-.3Z"/>
  <path class="st44" d="M207.5,40.8c0,.2.3.3.5.3,0,0,.1,0,.2-.1l-.7-.2s0,0,0,0Z"/>
  <path class="st46" d="M202.9,25.3c-.4,0-.7,0-1.1.2-.2,0-.4.2-.6.3l4.4,1c-.6-.9-1.7-1.4-2.7-1.4Z"/>
  <path class="st39" d="M206,27.5c-.1-.3-.3-.6-.4-.8l-4.4-1c-.5.3-.9.7-1.1,1.1l6.1,1.4c0-.2,0-.4-.2-.7Z"/>
  <path class="st36" d="M206.2,28.2l-6.1-1.4c-.2.4-.4.8-.5,1.3l6.5,1.5c.1-.4.2-.9.1-1.3Z"/>
  <path class="st6" d="M206.1,29.5l-6.5-1.5c0,.4,0,.9,0,1.4l5.8,1.3c.3-.4.5-.8.6-1.2Z"/>
  <path class="st19" d="M205.4,30.8l-5.8-1.3c0,0,0,.2,0,.3.2.5.5,1,.9,1.3l3.4.8c.6-.2,1.1-.6,1.5-1Z"/>
  <path class="st34" d="M204,31.8s0,0,0,0l-3.4-.8c.9.8,2.2,1.2,3.4.8Z"/>
  <path class="st36" d="M195.4,26c-.3,0-.7,0-1,.2-.4.1-.7.3-1,.6l4.8,1.1c-.5-1.1-1.6-1.8-2.8-1.8Z"/>
  <path class="st6" d="M198.4,28.1c0-.1,0-.2-.1-.3l-4.8-1.1c-.4.3-.7.7-.9,1.2l6,1.3c0-.4,0-.7-.2-1.1Z"/>
  <path class="st19" d="M198.5,29.2l-6-1.3c-.2.4-.3.9-.3,1.3l5.9,1.3c.2-.4.3-.8.3-1.3Z"/>
  <path class="st34" d="M192.7,30.6l4.6,1c.4-.3.8-.7,1-1.1l-5.9-1.3c0,.3,0,.6.2,1,0,.2.1.3.2.5Z"/>
  <path class="st22" d="M197.2,31.7l-4.5-1c.7,1.3,2.3,1.9,3.8,1.4.3-.1.6-.3.8-.4Z"/>
  <path class="st34" d="M188.8,29.7c0,0-.1,0-.2,0l1.6.4c-.4-.2-.9-.4-1.4-.4Z"/>
  <path class="st22" d="M186.7,30.7l4.9,1.1s0,0,0,0c-.2-.7-.7-1.3-1.3-1.6l-1.6-.4c-.3,0-.5,0-.8.1-.5.2-.9.4-1.2.8Z"/>
  <path class="st17" d="M186,31.9l5.7,1.3c0-.4,0-.9,0-1.4l-4.9-1.1c-.3.3-.6.8-.7,1.2Z"/>
  <path class="st47" d="M186,33.2l5.2,1.1c.3-.4.4-.8.5-1.2l-5.7-1.3c-.1.4-.1.9,0,1.4Z"/>
  <path class="st23" d="M189.8,35.4c.6-.2,1-.6,1.4-1l-5.2-1.1c0,.1,0,.2,0,.3.2.5.5.9.8,1.2l2.7.6s0,0,.1,0Z"/>
  <path class="st1" d="M189.6,35.4l-2.7-.6c.7.6,1.8.9,2.7.6Z"/>
  <path class="st44" d="M184.2,35.8c-.3,0-.6,0-.9.1-.4.1-.7.3-.9.6l4.3,1c-.4-1-1.4-1.7-2.5-1.7Z"/>
  <path class="st3" d="M186.7,37.6c0,0,0-.1,0-.2l-4.3-1c-.4.3-.6.7-.8,1.2l5.2,1.2c0-.4,0-.8-.1-1.2Z"/>
  <path class="st2" d="M186.9,38.9l-5.2-1.2c-.1.4-.2.9,0,1.4l4.8,1.1c.3-.4.4-.8.5-1.3Z"/>
  <path class="st16" d="M185.1,41.1c.5-.2,1-.5,1.3-.9l-4.8-1.1c0,.1,0,.2,0,.3.2.5.5.9.9,1.3l2.2.5c.1,0,.2,0,.3,0Z"/>
  <path class="st37" d="M184.7,41.1l-2.2-.5c.6.5,1.4.6,2.2.5Z"/>
  <path class="st43" d="M182.4,43.3s0,0-.1,0l1.3.3c-.4-.2-.7-.3-1.2-.3Z"/>
  <path class="st28" d="M184.7,45c-.2-.6-.6-1.1-1.2-1.4l-1.3-.3c-.2,0-.5,0-.7.1-.9.3-1.5,1.2-1.6,2.1l4.8,1.1c.2-.5.2-1.1,0-1.6Z"/>
  <path class="st41" d="M184.7,46.6l-4.8-1.1c0,.3,0,.7.1,1.1,0,.1.1.3.2.4l3.6.8c.4-.3.7-.7.9-1.2Z"/>
  <path class="st9" d="M183.2,48.1c.2,0,.4-.2.6-.3l-3.6-.8c.6,1,1.8,1.6,3,1.1Z"/>
  <path class="st21" d="M183.7,50.9c-.3,0-.5,0-.7.1-.3.1-.5.3-.8.4l3.5.8c-.4-.8-1.2-1.4-2-1.4Z"/>
  <path class="st11" d="M185.8,52.4c0,0,0,0,0-.1l-3.5-.8c-.4.3-.6.7-.7,1.2l4.4,1c0-.4,0-.8,0-1.2Z"/>
  <path class="st29" d="M185.8,53.7l-4.4-1c0,.4,0,.8,0,1.2,0,0,0,.1,0,.2l3.5.8c.4-.3.6-.7.7-1.2Z"/>
  <path class="st10" d="M184.4,55.3c.3,0,.5-.2.7-.4l-3.5-.8c.5,1,1.7,1.6,2.8,1.2Z"/>
  <path class="st32" d="M187.8,57.3c-.2,0-.4,0-.7.1-.3,0-.5.2-.7.4l3.2.7c-.3-.8-1.1-1.3-1.9-1.3Z"/>
  <path class="st27" d="M189.7,58.7s0,0,0,0l-3.2-.7c-.3.3-.6.8-.6,1.2l3.9.9c.1-.4.1-.9,0-1.3Z"/>
  <path class="st12" d="M188.5,61.2c.6-.2,1.1-.7,1.2-1.3l-3.9-.9c0,.3,0,.6,0,.9.4,1.1,1.5,1.6,2.6,1.2Z"/>
  <path class="st12" d="M195.9,62.7c-.3-.7-.9-1.2-1.7-1.2s-.4,0-.6,0c-.7.3-1.2.9-1.2,1.7l3.4.8c.2-.4.2-.9,0-1.3Z"/>
  <path class="st38" d="M192.4,63.3c0,.2,0,.4,0,.6.1.4.4.7.8,1l1.1.2c.1,0,.3,0,.4,0,.5-.2.8-.5,1-1l-3.4-.8Z"/>
  <path class="st42" d="M194.3,65.1l-1.1-.2c.3.2.7.3,1.1.2Z"/>
  <path class="st12" d="M201.6,62.8c-.2,0-.3,0-.5,0-.8.3-1.3,1.2-1,2,0,0,0,.1,0,.2l2.4.5c.5-.4.7-1.1.5-1.7-.2-.6-.8-1.1-1.5-1.1Z"/>
  <path class="st38" d="M202.1,65.8c.2,0,.3-.2.5-.3l-2.4-.5c.3.7,1.2,1.1,1.9.8Z"/>
  <path class="st10" d="M208.8,61c-.2,0-.3,0-.4,0-.2,0-.3.1-.4.3l2.1.5c-.2-.5-.7-.8-1.2-.8Z"/>
  <path class="st32" d="M207.5,62.6l2.4.5c.2-.3.3-.8.2-1.2,0,0,0,0,0-.1l-2.1-.5c-.4.3-.5.8-.4,1.3Z"/>
  <path class="st27" d="M207.5,62.8c.2.7,1,1.1,1.7.8.3,0,.5-.3.6-.5l-2.4-.5c0,0,0,.1,0,.2Z"/>
  <path class="st9" d="M215.6,57.2c-.2-.5-.6-.7-1.1-.7-.1,0-.3,0-.4,0-.3.1-.5.3-.7.6l2.1.5c0-.1,0-.3,0-.4Z"/>
  <path class="st21" d="M214.9,58.6c.4-.2.7-.6.7-1l-2.1-.5c0,.2-.1.5,0,.8.2.6.8.9,1.4.7Z"/>
  <path class="st43" d="M218.6,50.5c-.1-.4-.5-.6-.8-.6s-.2,0-.3,0c-.4.2-.7.6-.6,1.1l1.5.3c.2-.2.3-.6.2-.9Z"/>
  <path class="st28" d="M218.1,51.6c.1,0,.3-.1.4-.3l-1.5-.3s0,0,0,0c.2.5.7.7,1.1.6Z"/>
  <path class="st1" d="M218.7,43.1c0-.3-.4-.5-.6-.5,0,0-.2,0-.2,0-.2,0-.3.2-.4.3l1.2.3c0,0,0-.1,0-.2Z"/>
  <path class="st44" d="M218.3,43.9c.3-.1.5-.4.4-.7l-1.2-.3c0,.2-.1.4,0,.5.1.4.5.5.9.4Z"/>
  <path class="st22" d="M215.4,36.8c.2,0,.4-.3.3-.6,0-.2-.2-.3-.4-.3,0,0,0,0-.2,0-.2,0-.4.3-.3.6,0,.2.3.4.6.3Z"/>
  <path class="st6" d="M210.1,31.1c0,0-.1-.2-.2-.2s0,0,0,0c-.1,0-.2.2-.1.3,0,.1.2.2.3.1.1,0,.2-.2.1-.3Z"/>
  <path class="st0" d="M206.9,19.1c-.5-1.4-1.8-2.3-3.2-2.3-.4,0-.7,0-1.1.2-.9.3-1.6,1-1.9,1.8l6.4,1.4c0-.4,0-.7-.2-1.1Z"/>
  <path class="st4" d="M207.1,20.2l-6.4-1.4c-.2.4-.3.8-.3,1.3l6.4,1.4c.2-.4.3-.8.3-1.3Z"/>
  <path class="st18" d="M206.8,21.5l-6.4-1.4c0,.4,0,.8.2,1.2,0,0,0,.1.1.2l5.3,1.2c.4-.3.6-.7.8-1.2Z"/>
  <path class="st7" d="M204.8,23.4c.4-.2.8-.4,1.1-.7l-5.3-1.2c.3.8,1,1.4,1.7,1.8l1.2.3c.4,0,.8,0,1.2-.2Z"/>
  <path class="st5" d="M203.7,23.5l-1.2-.3c.4.2.8.3,1.2.3Z"/>
  <path class="st0" d="M195.5,17.2c-.3,0-.7,0-1,.2l3.2.7c-.6-.6-1.4-.9-2.2-.9Z"/>
  <path class="st4" d="M194.4,17.4c-.6.2-1.1.6-1.4,1l5.6,1.2c0-.1,0-.2,0-.3-.2-.5-.4-.9-.8-1.3l-3.2-.7s0,0,0,0Z"/>
  <path class="st18" d="M192.4,19.7l6.2,1.4c0-.4,0-.9,0-1.4l-5.6-1.2c-.3.4-.5.8-.6,1.2Z"/>
  <path class="st7" d="M192.4,21l5.7,1.3c.3-.4.4-.8.5-1.2l-6.2-1.4c-.1.4-.1.9,0,1.4Z"/>
  <path class="st5" d="M192.5,21.5c.1.4.4.8.6,1.1l3.6.8c.6-.2,1-.6,1.4-1.1l-5.7-1.3c0,.1,0,.3.1.4Z"/>
  <path class="st46" d="M196.5,23.4c0,0,.1,0,.2,0l-3.6-.8c.8.9,2.2,1.3,3.4.9Z"/>
  <path class="st5" d="M185.7,20.9l4.7,1.1c-.5-1.1-1.6-1.8-2.7-1.8s-.7,0-1,.2c-.4.1-.7.3-1,.6Z"/>
  <path class="st46" d="M184.9,22.1l5.8,1.3c0-.4,0-.8-.2-1.2,0,0,0-.2-.1-.3l-4.7-1.1c-.4.3-.7.7-.8,1.2Z"/>
  <path class="st39" d="M184.7,23.4l5.6,1.3c.2-.4.4-.8.4-1.3l-5.8-1.3c-.2.4-.2.9-.2,1.3Z"/>
  <path class="st36" d="M184.8,24.2c0,.2.2.5.4.7l4.1.9c.5-.3.8-.7,1.1-1.1l-5.6-1.3c0,.3,0,.5.1.8Z"/>
  <path class="st6" d="M188.7,26.1c.2,0,.4-.2.6-.3l-4.1-.9c.7,1.1,2.2,1.6,3.5,1.2Z"/>
  <path class="st6" d="M181.5,25.4h.6c-.2,0-.4,0-.6,0Z"/>
  <path class="st19" d="M182.1,25.5h-.6c-.1-.1-.2-.2-.3-.2-.3,0-.6,0-.9.2-.4.1-.8.4-1.1.7l4.7,1.1c-.3-.9-1-1.5-1.8-1.8Z"/>
  <path class="st34" d="M183.8,27.3s0,0,0,0l-4.7-1.1c-.3.3-.6.8-.7,1.2l5.5,1.2c0-.5,0-.9-.1-1.4Z"/>
  <path class="st22" d="M183.9,28.7l-5.5-1.2c-.1.4-.1.9,0,1.3l5.1,1.1c.3-.4.4-.8.5-1.2Z"/>
  <path class="st17" d="M183.4,29.9l-5.1-1.1c0,.1,0,.3,0,.4.2.5.5.9.8,1.2l2.7.6s0,0,.1,0c.6-.2,1-.6,1.4-1Z"/>
  <path class="st47" d="M181.9,31l-2.7-.6c.7.6,1.7.9,2.7.6Z"/>
  <path class="st23" d="M176.5,32.4c-.1,0-.2,0-.3,0l1.7.4c-.4-.3-.9-.4-1.4-.4Z"/>
  <path class="st1" d="M179.1,34.4c0,0,0-.2,0-.2-.2-.6-.6-1.1-1.1-1.4l-1.7-.4c-.2,0-.4,0-.6.1-.5.2-.9.5-1.2.8l4.7,1Z"/>
  <path class="st44" d="M173.8,34.6l5.2,1.2c.1-.4.1-.9,0-1.4l-4.7-1c-.3.4-.5.8-.6,1.2Z"/>
  <path class="st3" d="M173.9,35.9s0,0,0,0l4.4,1c.3-.3.6-.7.7-1.2l-5.2-1.2c0,.4,0,.9,0,1.3Z"/>
  <path class="st2" d="M177.3,37.6c.4-.1.7-.4,1-.6l-4.4-1c.5,1.4,2,2.1,3.4,1.6Z"/>
  <path class="st43" d="M174.1,40.5c-.3,0-.5,0-.8.1-.3.1-.6.3-.9.5l4,.9c-.4-.9-1.3-1.5-2.3-1.5Z"/>
  <path class="st28" d="M176.5,42.2c0,0,0-.1,0-.2l-4-.9c-.7.6-1,1.6-.7,2.6l4.3,1c.6-.7.8-1.6.5-2.5Z"/>
  <path class="st41" d="M174.9,45.4c.4-.1.8-.4,1.1-.7l-4.3-1s0,0,0,.1c.5,1.3,1.9,2,3.2,1.6Z"/>
  <path class="st21" d="M174.3,48.9c-.3,0-.5,0-.8.1-.2,0-.5.2-.7.4l3.5.8c-.4-.8-1.2-1.3-2.1-1.3Z"/>
  <path class="st11" d="M176.6,50.5c0-.1,0-.2-.1-.3l-3.5-.8c-.4.3-.7.7-.8,1.2l4.6,1c0-.4,0-.7,0-1.1Z"/>
  <path class="st29" d="M172.1,50.6c-.1.4-.1.9,0,1.4l4,.9c.3-.3.5-.8.6-1.2l-4.6-1Z"/>
  <path class="st10" d="M176.1,52.8l-4-.9s0,0,0,0c.4,1.2,1.8,1.9,3,1.5.4-.1.7-.4,1-.6Z"/>
  <path class="st27" d="M177.1,56.9c-.2,0-.5,0-.7.1,0,0,0,0,0,0l2.3.5c-.4-.4-1-.6-1.5-.6Z"/>
  <path class="st12" d="M175,59.4l3.9.9c.4-.6.5-1.3.3-1.9-.1-.3-.3-.6-.5-.8l-2.3-.5c-1,.4-1.6,1.4-1.4,2.4Z"/>
  <path class="st38" d="M175.1,59.8c.2.6.7,1.1,1.2,1.3l.7.2c.3,0,.5,0,.8-.1.5-.2.8-.5,1.1-.8l-3.9-.9c0,.1,0,.2,0,.4Z"/>
  <path class="st42" d="M177,61.2l-.7-.2c.2,0,.5.2.7.2Z"/>
  <path class="st42" d="M184.1,65c-.3-.8-1.1-1.4-1.9-1.4s-.4,0-.7.1c-.5.2-.9.5-1.1,1l3.8.8c0-.2,0-.4-.1-.6Z"/>
  <path class="st14" d="M184.2,65.6l-3.8-.8c-.2.4-.3.9-.2,1.3l3.6.8c.3-.4.4-.8.4-1.3Z"/>
  <path class="st26" d="M183.8,66.8l-3.6-.8c0,0,0,.2,0,.3.4,1.1,1.5,1.6,2.6,1.2.4-.1.7-.4,1-.7Z"/>
  <path class="st26" d="M190.7,69.7c-.3-.8-1-1.2-1.7-1.2s-.4,0-.6,0c-.3.1-.5.3-.7.5l3.1.7s0,0,0,0Z"/>
  <path class="st40" d="M190.7,69.7l-3.1-.7c-.3.3-.5.8-.5,1.3l3.5.8c.2-.4.2-.9,0-1.3Z"/>
  <path class="st45" d="M187.1,70.3c0,.2,0,.4,0,.6.1.4.4.7.8.9l1.3.3c.1,0,.2,0,.3,0,.5-.2.9-.5,1.1-1l-3.5-.8Z"/>
  <path class="st35" d="M189.2,72.1l-1.3-.3c.4.2.8.3,1.3.3Z"/>
  <path class="st26" d="M196.9,71c-.1,0-.3,0-.4,0l1.4.3c-.3-.2-.7-.4-1.1-.4Z"/>
  <path class="st40" d="M198.5,72.1c-.1-.3-.3-.5-.5-.7l-1.4-.3c0,0-.1,0-.2,0-.5.2-.9.6-1,1.1l3.3.7c0-.2,0-.5,0-.8Z"/>
  <path class="st45" d="M198.6,72.9l-3.3-.7c-.1.3-.1.7,0,1.1,0,.1,0,.2.2.3l2.3.5c.4-.3.7-.7.8-1.2Z"/>
  <path class="st35" d="M197.5,74.2c.1,0,.2-.1.4-.2l-2.3-.5c.4.7,1.2,1,2,.7Z"/>
  <path class="st14" d="M205.2,70.9c-.2,0-.3,0-.5,0-.2,0-.4.2-.6.4l2.5.6c-.2-.6-.8-1-1.4-1Z"/>
  <path class="st26" d="M206.6,71.9s0,0,0,0l-2.5-.6c-.3.3-.5.8-.4,1.3l2.8.6c.2-.4.3-.9.2-1.3Z"/>
  <path class="st40" d="M205.7,73.9c.3-.1.6-.3.8-.6l-2.8-.6c0,0,0,.2,0,.3.3.8,1.1,1.2,1.9.9Z"/>
  <path class="st38" d="M214.3,69.2c-.2-.6-.7-.9-1.3-.9-.2,0-.3,0-.4,0-.3.1-.6.3-.7.6l2.5.6c0-.1,0-.2,0-.3Z"/>
  <path class="st42" d="M213.4,70.9c.6-.2.9-.8.9-1.4l-2.5-.6c-.2.3-.2.7-.1,1.1.2.7,1,1.1,1.7.8Z"/>
  <path class="st10" d="M219.5,63.4c-.1,0-.3,0-.4,0-.1,0-.3.1-.4.2l1.8.4c-.2-.4-.6-.7-1.1-.7Z"/>
  <path class="st32" d="M220.7,64.2s0,0,0,0l-1.8-.4c-.4.3-.5.8-.3,1.3,0,0,0,0,0,0l1.9.4c.3-.3.4-.8.3-1.2Z"/>
  <path class="st27" d="M219.9,65.7c.2,0,.3-.2.4-.3l-1.9-.4c.2.6.9.9,1.5.7Z"/>
  <path class="st9" d="M224.6,58.8c.5-.2.8-.8.6-1.3-.1-.4-.5-.7-.9-.7s-.2,0-.3,0c-.5.2-.8.8-.6,1.3.2.5.8.8,1.3.6Z"/>
  <path class="st2" d="M226.6,49c0,0-.1,0-.2,0l.7.2c-.1-.1-.3-.2-.5-.2Z"/>
  <path class="st16" d="M225.8,50.1c0,0,0,.1.1.2l1.1.2c.3-.2.5-.6.4-1,0-.2-.1-.3-.3-.4l-.7-.2s0,0,0,0c-.4.2-.7.6-.5,1.1Z"/>
  <path class="st37" d="M226.9,50.6c0,0,.1,0,.2,0l-1.1-.2c.2.3.6.5,1,.3Z"/>
  <path class="st47" d="M226.6,42.2c.4-.1.5-.5.4-.9,0-.3-.4-.5-.6-.5s-.1,0-.2,0c-.4.1-.5.5-.4.9,0,.1.2.3.3.3h.4c0,0,0,0,.1,0Z"/>
  <path class="st23" d="M226.4,42.3h-.4c.1,0,.3,0,.4,0Z"/>
  <path class="st36" d="M223.6,33.3c0,0-.1,0-.2,0,0,0,0,0,0,0h.7c0,0-.2,0-.4,0Z"/>
  <path class="st6" d="M223.8,34.3c.3,0,.4-.4.3-.6,0,0,0,0,0-.1h-.7c-.2,0-.3.2-.2.4,0,.3.4.4.6.3Z"/>
  <path class="st5" d="M218.7,27.5c.2,0,.3-.3.2-.4,0-.1-.2-.2-.3-.2,0,0,0,0-.1,0-.2,0-.3.3-.2.4,0,.2.3.3.4.2Z"/>
  <path class="st4" d="M211.9,22.5c0,0,0-.1-.2-.1,0,0,0,0,0,0,0,0-.1.1,0,.2h.3s0,0,0,0Z"/>
  <path class="st18" d="M211.8,22.7s0,0,0,0h-.3c0,0,0,0,0,0,0,0,.1.1.2.1Z"/>
  <path class="st0" d="M206.3,15c1.7-.6,2.7-2.5,2.1-4.3-.5-1.4-1.8-2.3-3.2-2.3s-.7,0-1.1.2c-1.7.6-2.7,2.5-2.1,4.3.6,1.7,2.5,2.7,4.3,2.1Z"/>
  <path class="st0" d="M198.7,14.7c1.7-.6,2.6-2.4,2-4.1-.5-1.3-1.7-2.2-3.1-2.2-.4,0-.7,0-1.1.2-1.7.6-2.6,2.4-2,4.1.6,1.7,2.4,2.6,4.1,2Z"/>
  <path class="st0" d="M193.2,12c-.5-1.3-1.7-2.1-3-2.1-.3,0-.7,0-1,.2-1.6.6-2.5,2.3-1.9,4,0,.2.1.3.2.5l4.6,1c1.1-.8,1.6-2.2,1.1-3.5Z"/>
  <path class="st0" d="M192.1,15.5l-4.6-1c.7,1.3,2.3,2,3.8,1.5.3-.1.6-.3.8-.5Z"/>
  <path class="st0" d="M183.3,12.9c-.3,0-.6,0-1,.2-.7.2-1.2.7-1.5,1.2l5.5,1.2c0-.2,0-.4-.1-.6-.4-1.2-1.6-2-2.8-2Z"/>
  <path class="st4" d="M180.3,15.6l5.8,1.3c.1-.4.2-.9.1-1.3l-5.5-1.2c-.2.4-.4.8-.4,1.3Z"/>
  <path class="st18" d="M186.1,16.9l-5.8-1.3c0,.4,0,.9.1,1.3,0,0,0,0,0,0l4.9,1.1c.3-.3.6-.7.8-1.2Z"/>
  <path class="st7" d="M182.2,18.7l.9.2c.4,0,.8,0,1.1-.2.4-.2.8-.4,1.1-.7l-4.9-1.1c.3.8.9,1.4,1.7,1.7Z"/>
  <path class="st5" d="M183.2,19l-.9-.2c.3.1.6.2.9.2Z"/>
  <path class="st7" d="M177.1,17.4c-.2,0-.4,0-.6,0l2.3.5c-.5-.4-1.1-.6-1.7-.6Z"/>
  <path class="st5" d="M179.9,19.6c0,0,0-.1,0-.2-.2-.6-.6-1.1-1-1.4l-2.3-.5c-.1,0-.3,0-.4.1-.5.2-1,.5-1.3.9l5,1.1Z"/>
  <path class="st46" d="M174.3,19.7l5.6,1.3c.1-.4,0-.9,0-1.4l-5-1.1c-.3.4-.5.8-.6,1.2Z"/>
  <path class="st39" d="M174.4,21.1l5,1.1c.3-.4.5-.8.6-1.2l-5.6-1.3c0,.4,0,.9,0,1.4Z"/>
  <path class="st36" d="M174.4,21.3c.2.6.6,1.1,1.1,1.4l2.1.5c.2,0,.3,0,.5-.1.5-.2.9-.5,1.3-.9l-5-1.1c0,0,0,.1,0,.2Z"/>
  <path class="st6" d="M177.6,23.2l-2.1-.5c.6.4,1.4.6,2.1.5Z"/>
  <path class="st6" d="M172.1,23.1c-.2,0-.3,0-.5,0l2.2.5c-.5-.3-1-.5-1.6-.5Z"/>
  <path class="st19" d="M174.7,25c-.2-.6-.5-1-1-1.3l-2.2-.5c-.1,0-.3,0-.4.1-.5.2-.9.5-1.3.9l4.9,1.1c0,0,0-.2,0-.3Z"/>
  <path class="st34" d="M174.8,25.3l-4.9-1.1c-.3.4-.5.8-.6,1.2l5.4,1.2c.1-.4.1-.9,0-1.4Z"/>
  <path class="st22" d="M174.8,26.6l-5.4-1.2c0,.5,0,.9,0,1.4l4.6,1c.3-.3.6-.7.7-1.2Z"/>
  <path class="st17" d="M169.5,26.8c.5,1.5,2.1,2.2,3.5,1.7.4-.1.8-.4,1.1-.7l-4.6-1s0,0,0,0Z"/>
  <path class="st23" d="M167.5,30c-.2,0-.5.2-.7.4l3.9.9c-.5-.8-1.4-1.4-2.3-1.4s-.6,0-.9.1Z"/>
  <path class="st1" d="M165.9,31.5l5.1,1.1c0-.3,0-.7-.1-1,0-.2-.1-.3-.2-.4l-3.9-.9c-.4.3-.7.7-.9,1.2Z"/>
  <path class="st44" d="M165.7,32.8l4.9,1.1c.2-.4.4-.8.4-1.3l-5.1-1.1c-.2.4-.2.9-.2,1.3Z"/>
  <path class="st3" d="M165.8,33.3c.1.4.4.7.6,1l2.8.6c.6-.2,1-.6,1.3-1.1l-4.9-1.1c0,.2,0,.4.1.5Z"/>
  <path class="st2" d="M169.2,35s0,0,0,0l-2.8-.6c.7.7,1.8,1,2.8.7Z"/>
  <path class="st37" d="M164.3,37.9l4.2.9s0,0,0,0c-.4-1.1-1.4-1.7-2.4-1.7-.3,0-.6,0-.8.1-.4.1-.7.4-1,.7Z"/>
  <path class="st43" d="M163.6,39.2l5,1.1c.1-.4,0-.9,0-1.4l-4.2-.9c-.3.3-.5.8-.6,1.2Z"/>
  <path class="st28" d="M163.7,40.5c.5,1.3,1.9,2,3.2,1.6.9-.3,1.5-1,1.6-1.8l-5-1.1c0,.4,0,.9,0,1.4Z"/>
  <path class="st9" d="M167.7,46.4c-.4-1-1.3-1.6-2.3-1.6s-.5,0-.8.1c-.5.2-1,.6-1.3,1l4.5,1c0-.2,0-.3-.1-.5Z"/>
  <path class="st21" d="M167.9,46.9l-4.5-1c-.2.4-.4.8-.4,1.3l4.6,1c.2-.4.3-.9.2-1.3Z"/>
  <path class="st11" d="M167.6,48.2l-4.6-1c0,.3,0,.5.1.8,0,.3.2.5.4.7l3,.7c.5-.3.9-.6,1.1-1.1Z"/>
  <path class="st29" d="M166.2,49.5c.1,0,.2,0,.3-.2l-3-.7c.6.8,1.7,1.2,2.7.8Z"/>
  <path class="st32" d="M166.4,52.4c-.3,0-.5,0-.8.1-.3.1-.6.3-.9.5l3.8.8c-.3-.9-1.2-1.5-2.2-1.5Z"/>
  <path class="st27" d="M168.6,53.9s0,0,0,0l-3.8-.8c-.3.3-.6.8-.6,1.2l4.5,1c.1-.4.1-.9,0-1.3Z"/>
  <path class="st12" d="M167.2,56.9c.8-.3,1.3-.9,1.5-1.6l-4.5-1c0,.4,0,.8,0,1.2,0,0,0,.1,0,.2l2.1.5-2.1-.5c.5,1.1,1.7,1.6,2.8,1.2Z"/>
  <path class="st42" d="M171.1,61.1c-.3-.9-1.2-1.5-2.1-1.5s-.5,0-.7.1c-.9.3-1.4,1.1-1.5,2l4.2.9c.2-.5.2-1,0-1.5Z"/>
  <path class="st14" d="M171,62.6l-4.2-.9c0,.3,0,.6.1.8,0,.2.2.5.4.6l2.7.6c.5-.2.8-.7,1-1.1Z"/>
  <path class="st26" d="M169.7,63.9c0,0,.2,0,.3-.1l-2.7-.6c.6.7,1.5,1,2.4.7Z"/>
  <path class="st40" d="M175,67.5c-.3-.9-1.1-1.4-2-1.4-.2,0-.5,0-.7.1-.4.1-.7.3-.9.6l3.6.8s0,0,0-.1Z"/>
  <path class="st45" d="M175,67.6l-3.6-.8c-.3.3-.5.8-.5,1.3l4,.9c.2-.4.2-.9,0-1.3Z"/>
  <path class="st35" d="M175,69l-4-.9c0,.3,0,.5.1.8,0,.3.2.5.4.7l2.4.5c.5-.2.9-.6,1.1-1.1Z"/>
  <path class="st24" d="M173.7,70.1s0,0,.1,0l-2.4-.5c.5.6,1.4.9,2.2.6Z"/>
  <path class="st24" d="M178.4,71.6c-.2,0-.4,0-.6.1-.8.3-1.2.9-1.3,1.7l3.8.8c.2-.4.2-.9,0-1.3-.3-.8-1-1.3-1.9-1.3Z"/>
  <path class="st25" d="M176.5,74.2c.4,1,1.5,1.6,2.5,1.2.6-.2,1-.6,1.2-1.2l-3.8-.8c0,.3,0,.5,0,.8Z"/>
  <path class="st25" d="M184.7,75.8c-.2,0-.4,0-.6,0-.7.3-1.2.9-1.2,1.6l3.6.8c.2-.4.2-.9,0-1.3-.3-.8-1-1.2-1.7-1.2Z"/>
  <path class="st8" d="M182.9,78.2c.1.3.3.6.6.8l1.7.4s0,0,.1,0c.5-.2.9-.6,1.1-1.1l-3.6-.8c0,.2,0,.5.1.7Z"/>
  <path class="st30" d="M185.2,79.4l-1.7-.4c.4.4,1.1.5,1.7.4Z"/>
  <path class="st25" d="M191.8,78.5c-.2,0-.4,0-.6,0-.3.1-.6.3-.8.6l3.1.7c0,0,0-.1,0-.2-.3-.7-.9-1.2-1.6-1.2Z"/>
  <path class="st8" d="M190,80.5l3.2.7c.2-.4.3-.8.2-1.3l-3.1-.7c-.3.4-.4.8-.3,1.3Z"/>
  <path class="st30" d="M190,80.5c0,.1,0,.2,0,.3.3.9,1.3,1.4,2.2,1.1.4-.1.7-.4.9-.7l-3.2-.7Z"/>
  <path class="st25" d="M198.7,79.8c-.5.2-.9.6-1,1.1l3.2.7c0-.2,0-.5,0-.8-.2-.7-.9-1.1-1.5-1.1-.2,0-.4,0-.5,0Z"/>
  <path class="st8" d="M197.7,81.8c0,.2.1.3.2.4l2.1.5c.4-.3.7-.7.8-1.2l-3.2-.7c0,.3-.1.7,0,1Z"/>
  <path class="st30" d="M199.8,82.8c0,0,.2,0,.3-.1l-2.1-.5c.4.6,1.2.8,1.8.6Z"/>
  <path class="st24" d="M206.8,79.2c-.2,0-.3,0-.5,0-.3.1-.5.3-.7.5l2.7.6c0,0,0-.1,0-.2-.2-.6-.8-1-1.4-1Z"/>
  <path class="st25" d="M205.3,81.2c.3.8,1.1,1.2,1.9.9.7-.3,1.1-1,1-1.7l-2.7-.6c-.3.4-.4.9-.2,1.4Z"/>
  <path class="st45" d="M214,77.2c-.2,0-.3,0-.5,0-.2,0-.3.1-.4.2l2.1.5c-.2-.5-.7-.8-1.2-.8Z"/>
  <path class="st35" d="M215.3,78.1c0,0,0-.1,0-.2l-2.1-.5c-.4.3-.6.8-.5,1.2l2.6.6c.2-.3.3-.8.1-1.2Z"/>
  <path class="st24" d="M214.5,79.9c.3-.1.6-.3.7-.6l-2.6-.6c0,.1,0,.2,0,.3.3.7,1,1.1,1.8.9Z"/>
  <path class="st42" d="M220.6,73.6c0,0-.1,0-.2,0l.9.2c-.2-.2-.5-.2-.7-.2Z"/>
  <path class="st14" d="M221.8,74.5c0-.3-.3-.5-.5-.6l-.9-.2c0,0-.1,0-.2,0-.5.2-.8.6-.9,1.1l2.5.6c0-.3.1-.6,0-.8Z"/>
  <path class="st26" d="M221,76.1c.4-.1.6-.4.8-.8l-2.5-.6c0,.2,0,.4,0,.5.2.7,1,1,1.6.8Z"/>
  <path class="st12" d="M227.3,69.5c-.2-.5-.6-.8-1.1-.8-.1,0-.3,0-.4,0-.6.2-.9.9-.7,1.5,0,.2.2.3.3.4l1.2.3c.6-.2.9-.9.7-1.5Z"/>
  <path class="st38" d="M226.6,70.9s0,0,0,0l-1.2-.3c.3.3.8.4,1.2.3Z"/>
  <path class="st11" d="M230.7,62.7c-.1,0-.2,0-.3,0-.3.1-.5.4-.6.7l2,.4c0-.2,0-.3,0-.5-.2-.4-.6-.7-1-.7Z"/>
  <path class="st29" d="M229.7,64.1c.2.5.8.8,1.3.6.4-.1.6-.5.7-.9l-2-.4c0,.2,0,.4,0,.7Z"/>
  <path class="st28" d="M234.6,56.5c-.1-.4-.5-.6-.9-.6,0,0-.2,0-.3,0-.5.2-.7.7-.6,1.2,0,0,0,.1.1.2l1.2.3c.4-.2.6-.7.4-1.1Z"/>
  <path class="st41" d="M234,57.7c0,0,.1,0,.2,0l-1.2-.3c.2.3.7.5,1.1.4Z"/>
  <path class="st3" d="M235.1,48.6c0,0-.2,0-.3,0-.4.1-.6.5-.5.8l1.5.3c0-.2.1-.4,0-.6-.1-.3-.4-.6-.8-.6Z"/>
  <path class="st2" d="M234.4,49.7c.1.4.6.6,1,.5.2,0,.4-.2.5-.4l-1.5-.3c0,0,0,.2,0,.2Z"/>
  <path class="st22" d="M235,41.2c0,0-.2,0-.2,0,0,0-.1,0-.2.1l1,.2c-.1-.2-.4-.4-.6-.4Z"/>
  <path class="st17" d="M234.3,42.1c.1.4.5.6.9.4.4-.1.5-.5.4-.9,0,0,0,0,0,0l-1-.2c-.2.2-.3.5-.2.8Z"/>
  <path class="st39" d="M233.2,34c0,0-.1,0-.2,0,0,0-.1,0-.2.1l.9.2c0-.2-.3-.4-.5-.4Z"/>
  <path class="st36" d="M233.4,35.1c.3,0,.5-.4.4-.7,0,0,0,0,0,0l-.9-.2c-.2.2-.2.4-.2.6,0,.3.4.5.7.4Z"/>
  <path class="st18" d="M230.3,27.6c0-.2-.2-.3-.4-.3s0,0-.2,0c-.2,0-.4.4-.3.6,0,0,0,0,0,0l.8.2c.1-.1.2-.3.1-.5Z"/>
  <path class="st7" d="M230,28.2c0,0,.1,0,.2-.1l-.8-.2c0,.2.4.4.6.3Z"/>
  <path class="st0" d="M225.3,22.2c.2,0,.3-.3.2-.4,0-.1-.2-.2-.3-.2s0,0,0,0c-.2,0-.3.3-.2.4,0,.2.3.3.4.2Z"/>
  <path class="st0" d="M219.4,17.3c.1,0,.2-.2.1-.3,0,0-.1-.2-.2-.2s0,0,0,0c-.1,0-.2.2-.1.3,0,.1.2.2.3.1Z"/>
  <path class="st0" d="M212.6,13.8c0,0,0,0,0-.1,0,0,0,0-.1,0,0,0,0,0,0,0,0,0,0,0,0,.1,0,0,0,0,.1,0Z"/>
  <path class="st0" d="M207.4,7.2c1.7-.6,2.7-2.5,2.1-4.3-.5-1.4-1.8-2.3-3.2-2.3s-.7,0-1.1.2c-1.7.6-2.7,2.5-2.1,4.3s2.5,2.7,4.3,2.1Z"/>
  <path class="st0" d="M199.3,6.8c1.7-.6,2.6-2.4,2-4.1-.5-1.3-1.7-2.2-3.1-2.2-.4,0-.7,0-1.1.2-1.7.6-2.6,2.4-2,4.1.6,1.7,2.4,2.6,4.1,2Z"/>
  <path class="st0" d="M191.2,7.8c1.7-.6,2.5-2.4,1.9-4-.5-1.3-1.7-2.1-3-2.1s-.7,0-1,.2c-1.7.6-2.5,2.4-1.9,4s2.4,2.5,4,1.9Z"/>
  <path class="st0" d="M183.4,10.4c1.6-.6,2.4-2.3,1.9-3.9-.4-1.3-1.6-2.1-2.9-2.1-.3,0-.7,0-1,.2-1.6.6-2.4,2.3-1.9,3.9.6,1.6,2.3,2.4,3.9,1.9Z"/>
  <path class="st0" d="M178.2,10.7c-.4-1.2-1.6-2-2.8-2s-.6,0-1,.2c-1.5.5-2.3,2.2-1.8,3.7l5,1.1c.7-.8,1-1.9.6-3Z"/>
  <path class="st4" d="M174,14.2l1.6.4c.3,0,.5,0,.8-.1.5-.2.9-.4,1.2-.8l-5-1.1s0,0,0,0c.2.7.7,1.3,1.4,1.6Z"/>
  <path class="st18" d="M175.6,14.6l-1.6-.4c.5.3,1.1.4,1.6.4Z"/>
  <path class="st18" d="M169.3,14.1c-.3,0-.6,0-.9.2,0,0,0,0,0,0l2.9.7c-.5-.5-1.3-.8-2-.8Z"/>
  <path class="st7" d="M172.1,16.5c0-.2,0-.3-.1-.5-.1-.4-.4-.8-.7-1.1l-2.9-.7c-.6.2-1.1.6-1.4,1.1l5.1,1.1Z"/>
  <path class="st5" d="M166.5,16.6l5.5,1.2c.1-.4.2-.9,0-1.3l-5.1-1.1c-.3.4-.4.8-.5,1.3Z"/>
  <path class="st46" d="M166.6,17.9s0,0,0,.1l4.6,1c.3-.3.6-.7.7-1.2l-5.5-1.2c0,.4,0,.9.1,1.3Z"/>
  <path class="st39" d="M170.2,19.7c.4-.1.7-.4,1-.6l-4.6-1c.6,1.4,2.1,2.2,3.6,1.7Z"/>
  <path class="st6" d="M164.3,20.6c-.3,0-.6,0-.9.2-.3,0-.5.2-.8.4l4.1.9c-.5-.9-1.4-1.5-2.4-1.5Z"/>
  <path class="st19" d="M166.9,22.5c0-.1-.1-.2-.2-.4l-4.1-.9c-.4.3-.7.7-.9,1.2l5.3,1.2c0-.4,0-.7-.1-1.1Z"/>
  <path class="st34" d="M167,23.6l-5.3-1.2c-.2.4-.2.9-.2,1.3l5.1,1.1c.2-.4.4-.8.4-1.3Z"/>
  <path class="st22" d="M166.6,24.8l-5.1-1.1c0,.2,0,.4.1.6.1.3.3.7.5.9l3.1.7c.5-.2,1-.6,1.3-1.1Z"/>
  <path class="st17" d="M165.2,26c0,0,.1,0,.2,0l-3.1-.7c.7.8,1.9,1.2,3,.8Z"/>
  <path class="st23" d="M160.6,28c-.3,0-.6,0-.9.1-.3,0-.5.3-.8.4l4,.9c-.5-.9-1.4-1.5-2.4-1.5Z"/>
  <path class="st1" d="M163.1,29.8c0-.1,0-.2-.1-.3l-4-.9c-.4.3-.7.7-.8,1.2l5.1,1.1c0-.4,0-.7-.1-1.1Z"/>
  <path class="st44" d="M163.2,30.9l-5.1-1.1c-.2.4-.2.9-.1,1.3l4.8,1.1c.3-.4.4-.8.5-1.3Z"/>
  <path class="st3" d="M161.4,33.1c.6-.2,1-.5,1.3-1l-4.8-1.1c0,.1,0,.3,0,.4.2.5.4.8.8,1.1l2.4.5c0,0,.1,0,.2,0Z"/>
  <path class="st2" d="M161.3,33.2l-2.4-.5c.6.6,1.5.8,2.4.5Z"/>
  <path class="st37" d="M158.3,35.9c-.3,0-.6,0-.8.1-.2,0-.4.2-.5.3l3.5.8c-.5-.7-1.3-1.2-2.2-1.2Z"/>
  <path class="st43" d="M160.7,37.6c0-.2-.2-.4-.3-.5l-3.5-.8c-.4.3-.8.7-1,1.1l4.9,1.1c0-.3,0-.6-.1-.9Z"/>
  <path class="st28" d="M159.1,40.8c1-.4,1.7-1.3,1.7-2.3l-4.9-1.1c-.2.6-.3,1.2,0,1.8.1.4.4.8.7,1.1l2.4.5s0,0,0,0Z"/>
  <path class="st41" d="M159,40.9l-2.4-.5c.6.6,1.6.8,2.4.5Z"/>
  <path class="st9" d="M157.5,44.1c-.3,0-.5,0-.8.1-.1,0-.2,0-.3.1l3,.7c-.5-.6-1.2-.9-1.9-.9Z"/>
  <path class="st21" d="M159.8,45.7c0-.3-.2-.5-.4-.7l-3-.7c-.5.2-.9.6-1.1,1.1l4.6,1c0-.3,0-.5-.1-.8Z"/>
  <path class="st11" d="M160,46.5l-4.6-1c-.2.4-.3.9-.2,1.3l4.5,1c.2-.4.4-.8.4-1.3Z"/>
  <path class="st29" d="M158.3,48.8c.6-.2,1-.6,1.3-1l-4.5-1c0,.2,0,.4.1.5.1.4.4.7.7,1l2.3.5s0,0,0,0Z"/>
  <path class="st10" d="M158.3,48.9l-2.3-.5c.6.6,1.5.8,2.3.5Z"/>
  <path class="st27" d="M158.3,52.3c-.2,0-.5,0-.8.1-.2,0-.4.2-.5.3l3.3.7c-.4-.7-1.2-1.1-2-1.1Z"/>
  <path class="st12" d="M160.5,53.9c0-.2-.1-.3-.2-.5l-3.3-.7c-.8.5-1.2,1.5-1,2.5l4.1.9c.5-.6.7-1.4.4-2.2Z"/>
  <path class="st38" d="M160.2,56.1l-4.1-.9c0,0,0,.1,0,.2.4,1.2,1.8,1.9,3,1.5.4-.1.8-.4,1.1-.8Z"/>
  <path class="st42" d="M160.7,60.2c-.1,0-.2,0-.4,0l1.6.4c-.4-.3-.8-.4-1.3-.4Z"/>
  <path class="st14" d="M162.8,61.7c-.2-.5-.5-.9-.9-1.1l-1.6-.4c-.1,0-.2,0-.4,0-.5.2-.9.5-1.2.9l4.1.9c0-.2,0-.3-.1-.5Z"/>
  <path class="st26" d="M162.9,62.2l-4.1-.9c-.2.4-.4.8-.3,1.3l4.2.9c.2-.4.3-.9.2-1.3Z"/>
  <path class="st40" d="M158.4,62.5c0,.2,0,.4.1.6.1.4.3.7.6.9l2.2.5s0,0,0,0c.6-.2,1-.6,1.2-1.1l-4.2-.9Z"/>
  <path class="st45" d="M161.4,64.6l-2.2-.5c.6.5,1.4.8,2.2.5Z"/>
  <path class="st35" d="M164.4,67.5c-.2,0-.5,0-.7.1,0,0-.2,0-.2.1l2.6.6c-.4-.5-1-.8-1.7-.8Z"/>
  <path class="st24" d="M163.5,67.8c-.9.5-1.4,1.5-1.1,2.5l3.7.8c.5-.6.7-1.3.4-2.1,0-.2-.2-.4-.3-.6l-2.6-.6Z"/>
  <path class="st25" d="M162.4,70.4c.4,1.1,1.6,1.7,2.7,1.3.4-.1.7-.4.9-.6l-3.7-.8s0,0,0,.1Z"/>
  <path class="st25" d="M169.5,74c-.2,0-.4,0-.7.1-.1,0-.3.1-.4.2l2.7.6c-.4-.6-1-.9-1.7-.9Z"/>
  <path class="st8" d="M167.5,75.5l4,.9c0-.3,0-.7,0-1,0-.2-.1-.3-.2-.5l-2.7-.6c-.4.3-.8.7-.9,1.2Z"/>
  <path class="st30" d="M167.5,76.7c.4,1.1,1.5,1.6,2.6,1.3.7-.3,1.2-.9,1.3-1.6l-4-.9c-.1.4-.1.8,0,1.2Z"/>
  <path class="st30" d="M175.6,79.4c-.2,0-.4,0-.6,0-.2,0-.3.1-.4.2l2.7.6c-.3-.6-1-.9-1.6-.9Z"/>
  <path class="st31" d="M173.7,80.9l3.8.8c0-.3,0-.7,0-1.1,0-.1-.1-.2-.2-.4l-2.7-.6c-.4.3-.7.7-.8,1.2Z"/>
  <path class="st33" d="M173.8,82c0,.1.1.3.2.4l2.7.6c.4-.3.7-.7.8-1.2l-3.8-.8c0,.3,0,.7,0,1Z"/>
  <path class="st33" d="M174,82.4c.5.8,1.4,1.1,2.3.8.2,0,.3-.1.4-.2l-2.7-.6Z"/>
  <path class="st33" d="M182.7,83.6c-.2,0-.4,0-.6,0-.2,0-.4.2-.6.4l2.9.6c-.3-.7-.9-1.1-1.7-1.1Z"/>
  <path class="st33" d="M180.8,85.3l3.5.8c.1-.4.2-.8,0-1.3,0,0,0,0,0-.1l-2.9-.6c-.3.3-.6.8-.6,1.2Z"/>
  <path class="st15" d="M180.9,86c.3,1,1.4,1.5,2.3,1.1.5-.2.9-.6,1.1-1.1l-3.5-.8c0,.2,0,.5,0,.7Z"/>
  <path class="st33" d="M190.4,86.3c-.2,0-.4,0-.6,0-.4.1-.7.4-.9.7l3.1.7c0-.1,0-.2,0-.3-.2-.7-.9-1.2-1.6-1.2Z"/>
  <path class="st15" d="M188.7,88.6c.3.9,1.3,1.4,2.2,1.1.8-.3,1.3-1.1,1.1-1.9l-3.1-.7c-.3.4-.4,1-.2,1.5Z"/>
  <path class="st33" d="M197.9,87.6c-.6.2-.9.7-1,1.2l3.2.7c0-.3,0-.6,0-.9-.2-.7-.9-1.1-1.5-1.1s-.4,0-.5,0Z"/>
  <path class="st15" d="M196.9,89.7c.3.8,1.2,1.3,2.1,1,.5-.2.9-.6,1-1.2l-3.2-.7c0,.3,0,.6,0,.9Z"/>
  <path class="st31" d="M206.6,87.2c-.2,0-.3,0-.5,0-.3.1-.6.4-.8.7l2.8.6c0-.1,0-.2,0-.3-.2-.6-.8-1-1.4-1Z"/>
  <path class="st33" d="M205.1,89.3c.3.8,1.1,1.2,1.9.9.7-.2,1.1-.9,1-1.6l-2.8-.6c-.2.4-.3.8-.1,1.3Z"/>
  <path class="st8" d="M214.5,85.4c-.2,0-.3,0-.5,0-.2,0-.3.1-.4.3l2.2.5c-.2-.5-.7-.8-1.3-.8Z"/>
  <path class="st30" d="M213.1,87.3c.3.7,1.1,1.1,1.8.9.7-.3,1.1-1.1.9-1.8,0,0,0,0,0-.1l-2.2-.5c-.4.4-.6,1-.4,1.6Z"/>
  <path class="st24" d="M221.4,82.2c-.5.2-.8.6-.9,1l2.6.6c0-.3,0-.5,0-.8-.2-.6-.7-.9-1.3-.9s-.3,0-.4,0Z"/>
  <path class="st25" d="M220.6,83.9c.2.7,1,1.1,1.7.8.4-.1.7-.5.8-.9l-2.6-.6c0,.2,0,.4,0,.6Z"/>
  <path class="st26" d="M228.5,77.5c-.1,0-.3,0-.4,0-.2,0-.4.2-.6.4l2.2.5s0,0,0-.1c-.2-.5-.6-.8-1.2-.8Z"/>
  <path class="st40" d="M227.3,79.1c0,0,0,.1,0,.2l1.8.4c.4-.3.6-.8.5-1.3l-2.2-.5c-.2.3-.3.7-.2,1.1Z"/>
  <path class="st45" d="M228.9,79.8c.1,0,.2,0,.3-.2l-1.8-.4c.3.5.9.8,1.5.6Z"/>
  <path class="st12" d="M234.1,71.7c-.1,0-.2,0-.4,0-.3.1-.5.3-.7.6l2.1.5c0-.1,0-.3,0-.4-.2-.5-.6-.8-1.1-.8Z"/>
  <path class="st38" d="M233,73.2c.2.6.8.9,1.4.7.4-.2.7-.6.7-1l-2.1-.5c-.1.2-.1.5,0,.8Z"/>
  <path class="st11" d="M238.5,64.9c-.1,0-.2,0-.3,0-.2,0-.3.1-.4.3l1.7.4s0,0,0,0c-.1-.4-.5-.7-1-.7Z"/>
  <path class="st29" d="M237.5,66.3c0,.1.1.2.2.3l1.2.3c.5-.2.7-.7.5-1.2l-1.7-.4c-.3.3-.4.7-.2,1Z"/>
  <path class="st10" d="M238.8,66.9s0,0,0,0l-1.2-.3c.3.3.7.5,1.1.3Z"/>
  <path class="st28" d="M241.4,57.4c0,0-.2,0-.3,0-.5.2-.7.7-.6,1.2,0,.2.2.4.4.5h.6c0,.1.1.1.2,0,.5-.2.7-.7.6-1.2-.1-.4-.5-.6-.9-.6Z"/>
  <path class="st41" d="M241.5,59.3h-.6c.2,0,.4,0,.6,0Z"/>
  <path class="st44" d="M243,49.6c0,0-.2,0-.3,0-.2,0-.3.2-.4.3l1.4.3s0,0,0,0c-.1-.3-.4-.6-.8-.6Z"/>
  <path class="st3" d="M242.2,50.6c.1.4.6.6,1,.5.4-.1.6-.5.5-.9l-1.4-.3c-.2.2-.2.5-.1.8Z"/>
  <path class="st34" d="M243.6,42c-.1-.3-.4-.5-.7-.5,0,0-.2,0-.2,0-.1,0-.2,0-.3.2l1.2.3Z"/>
  <path class="st22" d="M242.3,42.5c.1.4.5.6.9.4.4-.1.6-.5.4-.9,0,0,0,0,0,0l-1.2-.3c-.2.2-.3.5-.2.7Z"/>
  <path class="st46" d="M242,34c0-.3-.3-.4-.6-.4s-.1,0-.2,0c-.3.1-.5.5-.4.8,0,0,0,0,0,.1l.8.2c.2-.1.4-.4.3-.7Z"/>
  <path class="st39" d="M241.6,34.8s0,0,.1,0l-.8-.2c.1.2.4.3.7.3Z"/>
  <path class="st0" d="M238.5,27.2c.3,0,.4-.4.3-.6,0-.2-.3-.3-.5-.3,0,0-.1,0-.2,0-.3,0-.4.4-.3.6,0,.1.1.2.2.2h.4c0,0,0,0,0,0Z"/>
  <path class="st4" d="M238.4,27.2h-.4c.1,0,.2,0,.4,0Z"/>
  <path class="st0" d="M234,20.3c.2,0,.3-.3.3-.5,0-.2-.2-.3-.4-.3s0,0-.1,0c-.2,0-.3.3-.3.5s.3.3.5.3Z"/>
  <path class="st0" d="M228.4,14.3c.2,0,.2-.2.2-.4,0-.1-.2-.2-.3-.2s0,0,0,0c-.2,0-.2.2-.2.4,0,.2.2.2.4.2Z"/>
  <path class="st0" d="M221.7,9.5c.1,0,.2-.2.1-.3,0,0-.1-.1-.2-.1,0,0,0,0,0,0-.1,0-.2.2-.1.3,0,.1.2.2.3.1Z"/>
  <path class="st0" d="M214.3,5.9s0,0,0,0h0c0,0,0,0,0,.1,0,0,0,0,.1,0,0,0,0,0,0-.1Z"/>
  <path class="st13" d="M105.4,68.8c0,.1,0,.3,0,.4,0,.1.2.2.4.2h.9c.3,0,.6-.2.6-.6v-.3c.1-.3.2-.6.2-.9.2-1.9-.9-3.3-2.8-3.3s-3.4,1.1-4,3.9l-1.5,6.8c-.1.5-.2,1-.3,1.7-.2,2.1,1,3.2,2.9,3.2s3.3-1,3.9-3.8c0-.3.1-.7.2-.9,0-.2-.2-.5-.5-.5h-.9c-.5,0-.6.4-.7.6l-.2,1c-.2,1-.6,1.7-1.4,1.7s-1.1-.6-1.1-1.2c0-.2,0-.5.2-1l1.8-7.7c.2-1,.6-1.7,1.4-1.7s1.1.6,1.1,1.2c0,.5-.2,1-.2,1.3Z"/>
  <path class="st13" d="M139.6,63.6c.3,0,.5-.2.5-.5v-.5c-.1-.2-.3-.3-.6-.3l-2.5.5c-.2,0-.4.2-.4.4h0c0,.3.2.5.4.5h2.6Z"/>
  <path class="st13" d="M24.5,18.9c.2-.9.3-1.7.4-2.2.2-2.5-1.4-4.4-3.8-4.4s-4.7,1.5-5.4,5.1l-2.2,9.7c-.2.9-.3,1.7-.4,2.2-.2,2.5,1.4,4.4,3.8,4.4s4.7-1.5,5.4-5.1l2.2-9.7ZM22,16.8c0,.2,0,.6-.2,1.3l-2.5,10.8c-.3,1.1-.8,2.1-2,2.1s-1.5-.8-1.4-1.7c0-.2,0-.6.2-1.3l2.5-10.8c.3-1.1.8-2.1,2-2.1s1.5.8,1.4,1.7Z"/>
  <path class="st13" d="M24.1,32.7c0,.4.2.8.7.8h4.1c3,0,4.6-1.5,5.3-5l.3-1.1c0-.3.1-.8.2-1.1,0-.9,0-1.9-.6-2.6l-.2-.2c0-.1-.1-.2-.1-.3,0-.2.1-.3.3-.4l.3-.2c.9-.7,1.6-1.5,2-3l.2-.9c.1-.5.2-1.2.3-1.8.2-2.6-1-4.3-3.9-4.3h-3.4c-.5,0-.8.4-.9.8l-4.3,19c0,.3,0,.4,0,.5ZM31,15.3h1.5c1,0,1.5.7,1.4,1.5,0,.2,0,.5-.2,1.2l-.4,1.9c-.1.6-.3,1-.6,1.2h0c-.4.4-.8.6-1.4.6h-1.7l1.5-6.3ZM28.9,24.3h1.6c.8,0,1.4.4,1.4,1.4,0,.1,0,.2-.3,1.1l-.5,2c-.3,1.1-.9,2-2,2h-1.7s1.5-6.5,1.5-6.5Z"/>
  <path class="st13" d="M45.4,18.5c0,.2,0,.4.1.5.1.2.3.3.6.3h1.3c.4,0,.8-.3.9-.8v-.4c.2-.4.3-.8.3-1.2.2-2.6-1.3-4.5-3.9-4.5s-4.5,1.4-5.4,5.2v.2c-.2.6-.3,1.1-.3,1.6-.1,1.6.4,2.6,1.8,3.9l1.5,1.4c.8.7,1.1,1.3,1,2.3,0,.3,0,.6-.2,1l-.2.9c-.4,1.6-1,2.1-2,2.1s-1.5-.8-1.4-1.7c0-.2,0-.5.2-1v-.4c.2-.3.2-.5.2-.6,0-.2,0-.4-.1-.5-.1-.2-.3-.3-.6-.3h-1.3c-.4,0-.8.3-.9.8l-.2.6c0,.4-.1.8-.2,1.1-.2,2.6,1.3,4.5,3.9,4.5s4.7-1.6,5.4-5.4v-.2c.2-.6.3-1.1.3-1.6.1-1.6-.5-2.6-1.9-4l-1.6-1.5c-.7-.7-1-1.3-.9-2.3,0,0,0,0,0-.5l.2-1c.3-1.4.8-2.1,2-2.1s1.6.8,1.5,1.7c0,.7-.3,1.4-.3,1.7Z"/>
  <path class="st13" d="M54.9,32.6v-.5c.2-.2.2-.5.2-.6,0-.2,0-.4-.2-.6-.1-.1-.3-.2-.6-.2h-3.2s1.4-6.3,1.4-6.3h3.1c.6,0,.9-.3,1.1-.9v-.5c.2-.2.2-.5.2-.6,0-.2,0-.4-.2-.6-.1-.1-.3-.2-.6-.2h-2.9s1.4-6.2,1.4-6.2h3.3c.6,0,.9-.3,1.1-.9v-.5c.2-.2.2-.5.2-.6,0-.2,0-.4-.2-.6-.1-.1-.3-.2-.6-.2h-5.4c-.4,0-.8.2-.9.8l-4.1,18.2c-.1.5-.2.9-.3,1.2,0,.4.2.8.7.8h5.4c.6,0,.9-.3,1.1-.9Z"/>
  <path class="st13" d="M72.2,33.5h3.2c.5,0,.7-.1,1-.3.2-.2.4-.5.6-.9l6.4-18.3c0-.2.2-.5.2-.6,0-.3,0-.4-.2-.6-.1-.2-.3-.3-.7-.3h-.9c-.7,0-.9.3-1.1.7l-5.6,16.9c-.1.4-.4.6-.7.6s-.5-.2-.5-.6c0-.2,2.1-16.5,2.2-16.8,0-.5-.3-.8-.7-.8h-1.3c-.5,0-.8.4-.9.8l-1.9,16.3c-.1,1.1-.2,2-.3,2.5,0,.3,0,.6.3.9.2.2.5.4,1.1.4Z"/>
  <path class="st13" d="M104.3,29.3c-.2,2.5,1.4,4.4,3.8,4.4s4.7-1.5,5.4-5.1l2.2-9.7c.2-.9.3-1.7.4-2.2.2-2.5-1.4-4.4-3.8-4.4s-4.7,1.5-5.4,5.1l-2.2,9.7c-.2.9-.3,1.7-.4,2.2ZM107.2,29.3c0-.2,0-.6.2-1.3l2.5-10.8c.3-1.1.8-2.1,2-2.1s1.5.8,1.4,1.7c0,.2,0,.6-.2,1.3l-2.5,10.8c-.3,1.1-.8,2.1-2,2.1s-1.5-.8-1.4-1.7Z"/>
  <path class="st13" d="M111.5,11.5h2.6c.3,0,.5-.3.5-.5v-.5c-.1-.2-.3-.3-.6-.3l-2.5.5c-.2,0-.4.2-.4.4h0c0,.3.2.5.4.5Z"/>
  <path class="st13" d="M141.9,12.4c-2.9,0-4.7,1.5-5.4,5.1l-2.2,9.7c-.2.9-.3,1.7-.4,2.2-.2,2.5,1.4,4.4,3.8,4.4s4.7-1.5,5.4-5.1l2.2-9.7c.2-.9.3-1.7.4-2.2.2-2.5-1.4-4.4-3.8-4.4ZM142.8,16.8c0,.2,0,.6-.2,1.3l-2.5,10.8c-.3,1.1-.8,2.1-2,2.1s-1.5-.8-1.4-1.7c0-.2,0-.6.2-1.3l2.5-10.8c.3-1.1.8-2.1,2-2.1s1.5.8,1.4,1.7Z"/>
  <path class="st13" d="M127.3,32.7c0,.3,0,.4.1.6.1.2.3.3.7.3h.8c.9,0,1.1-.6,1.2-1.1l3.5-15.3-3.2,1.4-3.1,13.6c0,.2,0,.5,0,.5Z"/>
  <path class="st0" d="M134.5,13.9c0-.2,0-.5,0-.5,0-.3,0-.4-.1-.6-.1-.2-.3-.3-.7-.3h-.8c-.9,0-1.1.6-1.2,1.1l-.7,2.9,3.2-1.4.3-1.2Z"/>
  <path class="st13" d="M41.1,38.2c-2.8,0-4.5,1.5-5.3,5.2l-3.3,14.5c0,.2,0,.5,0,.5,0,.3,0,.4.1.6.1.2.3.3.7.3h.8c.9,0,1.1-.6,1.2-1.1l1.7-7.3h3.3s-1.6,7.1-1.6,7.1c0,.2,0,.5,0,.5,0,.3,0,.4.1.6.1.2.3.3.7.3h.8c.9,0,1.1-.6,1.2-1.1l3.1-13.5c.2-.9.3-1.7.4-2.2.2-2.4-1.1-4.4-3.9-4.4ZM42.2,42.6c0,.2,0,.6-.2,1.3l-1,4.3h-3.3l1.1-5c.3-1.5.9-2.4,2.1-2.4s1.5.8,1.4,1.7Z"/>
  <path class="st13" d="M90.4,36.2l-2.5.5c-.2,0-.4.2-.4.4h0c0,.3.2.5.4.5h2.6c.3,0,.5-.3.5-.5v-.5c-.1-.2-.3-.3-.6-.3Z"/>
  <path class="st13" d="M92.9,39.2c0-.3,0-.4-.1-.6-.1-.2-.3-.3-.7-.3h-.8c-.9,0-1.1.6-1.2,1.1l-3.4,15c-.3,1.4-.9,2.4-2.1,2.4s-1.5-.8-1.4-1.7c0-.2,0-.6.2-1.3l3.2-14c0-.2,0-.5,0-.5,0-.3,0-.4-.1-.6-.1-.2-.3-.3-.7-.3h-.8c-.9,0-1.1.6-1.2,1.1l-3.1,13.5c-.2.9-.3,1.7-.4,2.2-.2,2.4,1.1,4.4,3.9,4.4s4.5-1.5,5.4-5.4l3.3-14.4c0-.2,0-.5,0-.5Z"/>
  <path class="st13" d="M101.3,54.1v-.2c.2-.6.3-1.1.3-1.6.1-1.6-.5-2.6-1.9-4l-1.6-1.5c-.7-.7-1-1.3-.9-2.3,0,0,0,0,0-.5l.2-1c.3-1.4.8-2.1,2-2.1s1.6.8,1.5,1.7c0,.7-.3,1.4-.3,1.7,0,.2,0,.4.1.5.1.2.3.3.6.3h1.3c.4,0,.8-.3.9-.8v-.4c.2-.4.3-.8.3-1.2.2-2.6-1.3-4.5-3.9-4.5s-4.5,1.4-5.4,5.2v.2c-.2.6-.3,1.1-.3,1.6-.1,1.6.4,2.6,1.8,3.9l1.5,1.4c.8.7,1.1,1.3,1,2.3,0,.3,0,.6-.2,1l-.2.9c-.4,1.6-1,2.1-2,2.1s-1.5-.8-1.4-1.7c0-.2,0-.5.2-1v-.4c.2-.3.2-.5.2-.6,0-.2,0-.4-.1-.5-.1-.2-.3-.3-.6-.3h-1.3c-.4,0-.8.3-.9.8l-.2.6c0,.4-.1.8-.2,1.1-.2,2.6,1.3,4.5,3.9,4.5s4.7-1.6,5.4-5.4Z"/>
  <path class="st13" d="M105.1,58.5c0,.3,0,.4.1.6.1.2.3.3.7.3h.8c.9,0,1.1-.6,1.2-1.1l3.9-17h2.3c.4,0,.6,0,.7-.2.2-.2.3-.3.3-.6l.2-.6c0-.4.1-.6.1-.8,0-.2,0-.4-.3-.5-.1-.1-.3-.2-.6-.2h-7.3c-.4,0-.6,0-.7.2-.2.2-.3.3-.3.6l-.2.6c0,.3-.1.6-.1.7,0,.2,0,.4.3.6.1.1.3.2.6.2h2.1s-3.8,16.8-3.8,16.8c0,.2,0,.5,0,.5Z"/>
  <path class="st13" d="M122.9,49.4l.3-.2c.9-.7,1.6-1.5,2-3l.4-1.7c.1-.5.2-1.2.3-1.8.2-2.6-1-4.3-3.9-4.3h-3.1c-.9,0-1.1.6-1.2,1.1l-4.2,18.5c0,.2,0,.5,0,.5,0,.3,0,.4.1.6.1.2.3.3.7.3h.8c.9,0,1.1-.6,1.2-1.1l1.7-7.3h1.6c.7,0,1.4.4,1.4,1.4,0,.2-1.2,5.4-1.3,5.7,0,.2,0,.5,0,.5,0,.3,0,.4.1.6.1.2.3.3.7.3h.8c.9,0,1.1-.6,1.2-1.1l1-4.5c0-.3.1-.6.2-1,0-.9,0-1.8-.7-2.5l-.2-.2c0-.1-.1-.2-.1-.3,0-.2.2-.3.3-.4ZM122.2,46.5c-.1.6-.3,1-.6,1.2h0c-.4.4-.8.6-1.4.6h-.8c-.3,0-.9,0-.9,0l1.6-7.1h1.5c1,0,1.5.7,1.4,1.5,0,.2,0,.5-.2,1.2l-.6,2.7Z"/>
  <path class="st13" d="M69.1,39.2c0-.3,0-.4-.1-.6-.1-.2-.3-.3-.7-.3h-.8c-.9,0-1.1.6-1.2,1.1l-2.6,11.2-.7-11.7h0c0-.1,0-.2-.1-.3-.1-.2-.3-.3-.7-.3h-.8c-.9,0-1.1.6-1.2,1.1l-4.2,18.5c0,.2,0,.5,0,.5,0,.3,0,.4.1.6.1.2.3.3.7.3h.8c.9,0,1.1-.6,1.2-1.1l2.5-11.1.8,11.5h0c0,.2,0,.3.1.4.1.2.3.3.7.3h.8c.9,0,1.1-.6,1.2-1.1l4.2-18.5c0-.2,0-.5,0-.5Z"/>
  <path class="st13" d="M76.8,38.4h-3.8c-.9,0-1.1.6-1.2,1.1l-4.2,18.5c0,.2,0,.5,0,.5,0,.3,0,.4.1.6.1.2.3.3.7.3h4.8c1.9,0,3.6-1.4,4.1-3.3l3-13.3c.5-2.3-1.1-4.3-3.4-4.3ZM77.3,43.1l-2.8,12.1c-.2.8-1,1.4-1.8,1.4h-1.9l3.5-15.5h1.5c1,0,1.7.9,1.5,1.9Z"/>
  <path class="st13" d="M29.7,38.4h-3.8c-.9,0-1.1.6-1.2,1.1l-4.2,18.5c0,.2,0,.5,0,.5,0,.3,0,.4.1.6.1.2.3.3.7.3h4.8c1.9,0,3.6-1.4,4.1-3.3l3-13.3c.5-2.3-1.1-4.3-3.4-4.3ZM30.2,43.1l-2.8,12.1c-.2.8-1,1.4-1.8,1.4h-1.9l3.5-15.5h1.5c1,0,1.7.9,1.5,1.9Z"/>
  <path class="st13" d="M139.5,38.2c-2.8,0-4.5,1.5-5.3,5.2l-3.3,14.5c0,.2,0,.5,0,.5,0,.3,0,.4.1.6.1.2.3.3.7.3h.8c.9,0,1.1-.6,1.2-1.1l1.7-7.3h3.3s-1.6,7.1-1.6,7.1c0,.2,0,.5,0,.5,0,.3,0,.4.1.6.1.2.3.3.7.3h.8c.9,0,1.1-.6,1.2-1.1l3.1-13.5c.2-.9.3-1.7.4-2.2.2-2.4-1.1-4.4-3.9-4.4ZM140.6,42.6c0,.2,0,.6-.2,1.3l-1,4.3h-3.3l1.1-5c.3-1.5.9-2.4,2.1-2.4s1.5.8,1.4,1.7Z"/>
  <path class="st13" d="M115.4,32.7c0,.3,0,.4.1.6.1.2.3.3.7.3h.8c.9,0,1.1-.6,1.2-1.1l1.7-7.3h1.6c.7,0,1.4.4,1.4,1.4,0,.2-1.2,5.4-1.3,5.7,0,.2,0,.5,0,.5,0,.3,0,.4.1.6.1.2.3.3.7.3h.8c.9,0,1.1-.6,1.2-1.1l1-4.5c0-.3.1-.6.2-1,0-.9,0-1.8-.7-2.5l-.2-.2c0-.1-.1-.2-.1-.3,0-.2.2-.3.3-.4l.3-.2c.9-.7,1.6-1.5,2-3l.4-1.7c.1-.5.2-1.2.3-1.8.2-2.6-1-4.3-3.9-4.3h-3.1c-.9,0-1.1.6-1.2,1.1l-4.2,18.5c0,.2,0,.5,0,.5ZM122.2,15.3h1.5c1,0,1.5.7,1.4,1.5,0,.2,0,.5-.2,1.2l-.6,2.7c-.1.6-.3,1-.6,1.2h0c-.4.4-.8.6-1.4.6h-.8c-.3,0-.9,0-.9,0l1.6-7.1Z"/>
  <path class="st13" d="M81.7,32.7c0,.3,0,.4.1.6.1.2.3.3.7.3h.8c.9,0,1.1-.6,1.2-1.1l1.7-7.3h3.3s-1.6,7.1-1.6,7.1c0,.2,0,.5,0,.5,0,.3,0,.4.1.6.1.2.3.3.7.3h.8c.9,0,1.1-.6,1.2-1.1l3.1-13.5c.2-.9.3-1.7.4-2.2.2-2.4-1.1-4.4-3.9-4.4s-4.5,1.5-5.3,5.2l-3.3,14.5c0,.2,0,.5,0,.5ZM88,17.4c.3-1.5.9-2.4,2.1-2.4s1.5.8,1.4,1.7c0,.2,0,.6-.2,1.3l-1,4.3h-3.3l1.1-5Z"/>
  <path class="st13" d="M96.6,33.5h.8c.9,0,1.1-.6,1.2-1.1l3.9-17h2.3c.4,0,.6,0,.7-.2.2-.2.3-.3.3-.6l.2-.6c0-.4.1-.6.1-.8,0-.2,0-.4-.3-.5-.1-.1-.3-.2-.6-.2h-7.3c-.4,0-.6,0-.7.2-.2.2-.3.3-.3.6l-.2.6c0,.3-.1.6-.1.7,0,.2,0,.4.3.6.1.1.3.2.6.2h2.1s-3.8,16.8-3.8,16.8c0,.2,0,.5,0,.5,0,.3,0,.4.1.6.1.2.3.3.7.3Z"/>
  <path class="st13" d="M57.1,32.7c0,.3,0,.4.1.6.1.2.3.3.7.3h.8c.9,0,1.1-.6,1.2-1.1l1.7-7.3h1.6c.7,0,1.4.4,1.4,1.4,0,.2-1.2,5.4-1.3,5.7,0,.2,0,.5,0,.5,0,.3,0,.4.1.6.1.2.3.3.7.3h.8c.9,0,1.1-.6,1.2-1.1l1-4.5c0-.3.1-.6.2-1,0-.9,0-1.8-.7-2.5l-.2-.2c0-.1-.1-.2-.1-.3,0-.2.2-.3.3-.4l.3-.2c.9-.7,1.6-1.5,2-3l.4-1.7c.1-.5.2-1.2.3-1.8.2-2.6-1-4.3-3.9-4.3h-3.1c-.9,0-1.1.6-1.2,1.1l-4.2,18.5c0,.2,0,.5,0,.5ZM63.9,15.3h1.5c1,0,1.5.7,1.4,1.5,0,.2,0,.5-.2,1.2l-.6,2.7c-.1.6-.3,1-.6,1.2h0c-.4.4-.8.6-1.4.6h-.8c-.3,0-.9,0-.9,0l1.6-7.1Z"/>
  <path class="st13" d="M113.1,71h-2.1s1-4.5,1-4.5h2.4c.4,0,.7-.2.8-.7v-.4c.1-.1.2-.4.2-.4,0-.1,0-.3-.1-.4,0,0-.2-.2-.5-.2h-4c-.3,0-.6.2-.6.6l-3,13.3c0,.4-.2.6-.2.9s.2.6.5.6h3.9c.4,0,.7-.2.8-.7v-.4c.1-.1.2-.4.2-.4,0-.1,0-.3-.1-.4,0,0-.2-.2-.5-.2h-2.4s1.1-4.6,1.1-4.6h2.2c.4,0,.7-.2.8-.7v-.4c.1-.1.2-.4.2-.4,0-.1,0-.3-.1-.4,0,0-.2-.2-.5-.2Z"/>
  <path class="st13" d="M129.6,72.5h.2c.7-.6,1.2-1.2,1.4-2.3l.3-1.2c0-.4.2-.9.2-1.3.2-1.9-.7-3.1-2.9-3.1h-2.3c-.7,0-.8.4-.9.8l-3.1,13.5c0,.1,0,.3,0,.4,0,.2,0,.3,0,.4,0,.1.2.2.5.2h.6c.7,0,.8-.4.9-.8l1.2-5.4h1.2c.5,0,1.1.3,1,1,0,.1-.9,4-.9,4.2,0,.1,0,.4,0,.4,0,.2,0,.3,0,.4,0,.1.2.2.5.2h.6c.7,0,.8-.4.9-.8l.8-3.3c0-.2,0-.5.1-.7,0-.7,0-1.3-.5-1.8h-.1c0-.2,0-.3,0-.4,0-.1.1-.2.2-.3ZM129.1,70.4c0,.4-.2.7-.4.9h0c-.3.3-.6.4-1,.4h-.6c-.2,0-.7,0-.7,0l1.2-5.2h1.1c.7,0,1.1.5,1.1,1.1,0,.1,0,.4-.1.9l-.4,2Z"/>
  <path class="st13" d="M137.6,64.3c-2,0-3.3,1.1-3.9,3.8l-2.4,10.6c0,.1,0,.3,0,.4,0,.2,0,.3,0,.4,0,.1.2.2.5.2h.6c.7,0,.8-.4.9-.8l1.2-5.4h2.4s-1.2,5.2-1.2,5.2c0,.1,0,.3,0,.4,0,.2,0,.3,0,.4,0,.1.2.2.5.2h.6c.7,0,.8-.4.9-.8l2.3-9.9c.2-.7.3-1.2.3-1.6.2-1.8-.8-3.2-2.9-3.2ZM138.4,67.5c0,.2,0,.4-.2,1l-.7,3.1h-2.4l.8-3.6c.2-1.1.6-1.7,1.5-1.7s1.1.6,1,1.2Z"/>
  <path class="st13" d="M123.1,67.5c.2-1.8-.8-3.2-2.9-3.2s-3.3,1.1-3.9,3.8l-2.4,10.6c0,.1,0,.3,0,.4,0,.2,0,.3,0,.4,0,.1.2.2.5.2h.6c.7,0,.8-.4.9-.8l1.2-5.4h2.4s-1.2,5.2-1.2,5.2c0,.1,0,.3,0,.4,0,.2,0,.3,0,.4,0,.1.2.2.5.2h.6c.7,0,.8-.4.9-.8l2.3-9.9c.2-.7.3-1.2.3-1.6ZM121,67.5c0,.2,0,.4-.2,1l-.7,3.1h-2.4l.8-3.6c.2-1.1.6-1.7,1.5-1.7s1.1.6,1,1.2Z"/>
  <path class="st13" d="M57.1,39.1c0-.3,0-.4-.1-.6-.1-.2-.3-.3-.7-.3h-.8c-.9,0-1.1.6-1.2,1.1l-4.2,18.5c0,.2,0,.5,0,.5,0,.3,0,.4.1.6.1.2.3.3.7.3h.8c.9,0,1.1-.6,1.2-1.1l4.2-18.5c0-.2,0-.5,0-.5Z"/>
  <path class="st13" d="M126.1,59.2h.8c.9,0,1.1-.6,1.2-1.1l4.2-18.5c0-.2,0-.5,0-.5,0-.3,0-.4-.1-.6-.1-.2-.3-.3-.7-.3h-.8c-.9,0-1.1.6-1.2,1.1l-4.2,18.5c0,.2,0,.5,0,.5,0,.3,0,.4.1.6.1.2.3.3.7.3Z"/>
</svg>